# xmcd
#
# Track frame offsets: 
#        150
#        21924
#        46227
#        70953
#        93378
#        114067
#        138331
#        158824
#        181344
#        200608
#        222880
#        243075
#        264289
#
# Disc length: 3850 seconds
#
# Revision: 4
# Processed by: cddbd v1.5.2PL0 Copyright (c) Steve Scherf et al.
# Submitted via: ExactAudioCopyFreeDBPlugin 1.0
#
DISCID=aa0f080d
DTITLE=Every Little Thing - Every Best Single ～COMPLETE～ CD4
DYEAR=2009
DGENRE=JPop
TTITLE0=きみの て
TTITLE1=azure moon
TTITLE2=ハイファイ メッセージ
TTITLE3=スイミー
TTITLE4=キラメキアワー
TTITLE5=恋をしている
TTITLE6=冬がはじまるよ feat. 槇原敬之
TTITLE7=サクラビト
TTITLE8=あたらしい日々
TTITLE9=黄金の月
TTITLE10=DREAM GOES ON
TTITLE11=冷たい雨
TTITLE12=Time goes by ～as time goes by (Kj MIX)
EXTD=YEAR: 2009
EXTT0=
EXTT1=
EXTT2=
EXTT3=
EXTT4=
EXTT5=
EXTT6=
EXTT7=
EXTT8=
EXTT9=
EXTT10=
EXTT11=
EXTT12=
PLAYORDER=
